<svg xmlns="http://www.w3.org/2000/svg" xmlns:oryx="http://www.b3mn.org/oryx" xmlns:svg="http://www.w3.org/2000/svg" xmlns:xlink="http://www.w3.org/1999/xlink" width="102" height="82" version="1.0"><oryx:magnets><oryx:magnet oryx:anchors="left" oryx:cx="1" oryx:cy="20"/><oryx:magnet oryx:anchors="left" oryx:cx="1" oryx:cy="40"/><oryx:magnet oryx:anchors="left" oryx:cx="1" oryx:cy="60"/><oryx:magnet oryx:anchors="bottom" oryx:cx="25" oryx:cy="79"/><oryx:magnet oryx:anchors="bottom" oryx:cx="50" oryx:cy="79"/><oryx:magnet oryx:anchors="bottom" oryx:cx="75" oryx:cy="79"/><oryx:magnet oryx:anchors="right" oryx:cx="99" oryx:cy="20"/><oryx:magnet oryx:anchors="right" oryx:cx="99" oryx:cy="40"/><oryx:magnet oryx:anchors="right" oryx:cx="99" oryx:cy="60"/><oryx:magnet oryx:anchors="top" oryx:cx="25" oryx:cy="1"/><oryx:magnet oryx:anchors="top" oryx:cx="50" oryx:cy="1"/><oryx:magnet oryx:anchors="top" oryx:cx="75" oryx:cy="1"/><oryx:magnet oryx:cx="50" oryx:cy="40" oryx:default="yes"/></oryx:magnets><g pointer-events="fill" oryx:minimumSize="50 40"><rect id="text_frame" width="94" height="79" x="1" y="1" fill="none" stroke="none" stroke-width="0" rx="10" ry="10" oryx:anchors="bottom top right left"/><rect id="bg_frame" width="100" height="80" x="0" y="0" fill="#f9f9f9" stroke="#bbb" stroke-width="1" rx="10" ry="10" oryx:resize="vertical horizontal"/><g id="processTask"><path d="M1 23 L7 11 L1 0 L30 0 L 35 11 L 30 23z" transform="scale(0.7,0.7) translate(8,8)" oryx:anchors="top left" style="opacity:1;fill:#f4f6f7;stroke:#000"/></g><g id="manualActivation" display="none"><g id="b" oryx:anchors="bottom"><path fill="none" d="M45.5 68 L54 73 L45.5 77 L45.5 69z" transform="translate(-2,0)" oryx:anchors="bottom"/></g></g><g id="repetition" display="none"><g id="b" oryx:anchors="bottom"><path fill="none" d="M47 68 v10 M50 68 v10 M53 68 v10" transform="translate(10,0)" oryx:anchors="bottom"/></g></g><g id="required" display="none"><g id="b" oryx:anchors="bottom"><path fill="none" d="M49 67 L49 74 M49 76 L49 78" transform="translate(-11,0)" oryx:anchors="bottom"/></g></g></g></svg>