<svg xmlns="http://www.w3.org/2000/svg" xmlns:oryx="http://www.b3mn.org/oryx" xmlns:svg="http://www.w3.org/2000/svg" xmlns:xlink="http://www.w3.org/1999/xlink" width="371" height="171" version="1.0"><oryx:magnets><oryx:magnet oryx:anchors="left" oryx:cx="1" oryx:cy="42"/><oryx:magnet oryx:anchors="left" oryx:cx="1" oryx:cy="84"/><oryx:magnet oryx:anchors="left" oryx:cx="1" oryx:cy="126"/><oryx:magnet oryx:anchors="bottom" oryx:cx="92" oryx:cy="170"/><oryx:magnet oryx:anchors="bottom" oryx:cx="184" oryx:cy="170"/><oryx:magnet oryx:anchors="bottom" oryx:cx="276" oryx:cy="170"/><oryx:magnet oryx:anchors="right" oryx:cx="370" oryx:cy="42"/><oryx:magnet oryx:anchors="right" oryx:cx="370" oryx:cy="84"/><oryx:magnet oryx:anchors="right" oryx:cx="370" oryx:cy="126"/><oryx:magnet oryx:anchors="top" oryx:cx="92" oryx:cy="1"/><oryx:magnet oryx:anchors="top" oryx:cx="184" oryx:cy="1"/><oryx:magnet oryx:anchors="top" oryx:cx="276" oryx:cy="1"/><oryx:magnet oryx:cx="185" oryx:cy="85" oryx:default="yes"/></oryx:magnets><g pointer-events="fill" oryx:minimumSize="160 93"><polygon id="bg_frame" fill="#fff" stroke="#000" points="10 0 360 0 370 10 370 160 360 170 10 170 0 160 0 10 10 0" oryx:resize="vertical horizontal"/><g id="autoComplete" display="none"><path d="M180 155 L189 155 L189 167 L180 167 L180 167z" transform="translate(-13,0)" oryx:anchors="bottom"/></g><g id="required" display="none"><path fill="none" d="M183 154 L183 164 M183 166 L183 168" transform="translate(-23,0)" oryx:anchors="bottom"/></g><g id="manualActivation" display="none"><path fill="none" d="M188 162 L178 155 L178 155 L178 167z" transform="translate(6,0)" oryx:anchors="bottom"/></g><g id="repetition" display="none"><path fill="none" d="M180 156 v12 M183 156 v12 M186 156 v12" transform="translate(20,0)" oryx:anchors="bottom"/></g></g></svg>